<svg viewBox="0 0 8 14" fill="none" xmlns="http://www.w3.org/2000/svg">
  <path
    d="M4.30648 6.14444C2.52259 5.68556 1.94892 5.21111 1.94892 4.47222C1.94892 3.62444 2.74263 3.03333 4.07073 3.03333C5.46955 3.03333 5.98821 3.69444 6.03536 4.66667H7.7721C7.71709 3.32889 6.89194 2.1 5.24951 1.70333V0H2.89194V1.68C1.36739 2.00667 0.141454 2.98667 0.141454 4.48778C0.141454 6.28444 1.64244 7.17889 3.83497 7.7C5.79961 8.16667 6.19253 8.85111 6.19253 9.57444C6.19253 10.1111 5.80747 10.9667 4.07073 10.9667C2.45187 10.9667 1.81532 10.2511 1.72888 9.33333H0C0.0943025 11.0367 1.3831 11.9933 2.89194 12.3122V14H5.24951V12.3278C6.78192 12.04 8 11.1611 8 9.56667C8 7.35778 6.09037 6.60333 4.30648 6.14444Z"
    fill="currentColor"/>
</svg>
