<svg width="10" height="14" viewBox="0 0 10 14" fill="none" xmlns="http://www.w3.org/2000/svg">
<path d="M5 0C2.23571 0 0 2.191 0 4.9C0 8.575 5 14 5 14C5 14 10 8.575 10 4.9C10 2.191 7.76429 0 5 0ZM1.42857 4.9C1.42857 2.968 3.02857 1.4 5 1.4C6.97143 1.4 8.57143 2.968 8.57143 4.9C8.57143 6.916 6.51429 9.933 5 11.816C3.51429 9.947 1.42857 6.895 1.42857 4.9Z" fill="currentColor"/>
<path d="M5 7.46667C6.25519 7.46667 7.27273 6.422 7.27273 5.13333C7.27273 3.84467 6.25519 2.8 5 2.8C3.74481 2.8 2.72727 3.84467 2.72727 5.13333C2.72727 6.422 3.74481 7.46667 5 7.46667Z" fill="currentColor"/>
</svg>
