<?xml version="1.0" encoding="UTF-8" standalone="no"?><svg xmlns="http://www.w3.org/2000/svg" xmlns:xlink="http://www.w3.org/1999/xlink"><symbol id="search" width="14px" height="14px" viewBox="0 0 14 14" fill="none" xmlns="http://www.w3.org/2000/svg"><path d="M10.0057 8.80503H9.37336L9.14923 8.58891C9.93368 7.67639 10.4059 6.49171 10.4059 5.20297C10.4059 2.32933 8.07662 0 5.20297 0C2.32933 0 0 2.32933 0 5.20297C0 8.07662 2.32933 10.4059 5.20297 10.4059C6.49171 10.4059 7.67639 9.93368 8.58891 9.14923L8.80503 9.37336V10.0057L12.8073 14L14 12.8073L10.0057 8.80503ZM5.20297 8.80503C3.20983 8.80503 1.60091 7.19611 1.60091 5.20297C1.60091 3.20983 3.20983 1.60091 5.20297 1.60091C7.19611 1.60091 8.80503 3.20983 8.80503 5.20297C8.80503 7.19611 7.19611 8.80503 5.20297 8.80503Z" fill="currentColor"></path></symbol><symbol id="dollar" width="8px" height="14px" viewBox="0 0 8 14" fill="none" xmlns="http://www.w3.org/2000/svg"><path d="M4.30648 6.14444C2.52259 5.68556 1.94892 5.21111 1.94892 4.47222C1.94892 3.62444 2.74263 3.03333 4.07073 3.03333C5.46955 3.03333 5.98821 3.69444 6.03536 4.66667H7.7721C7.71709 3.32889 6.89194 2.1 5.24951 1.70333V0H2.89194V1.68C1.36739 2.00667 0.141454 2.98667 0.141454 4.48778C0.141454 6.28444 1.64244 7.17889 3.83497 7.7C5.79961 8.16667 6.19253 8.85111 6.19253 9.57444C6.19253 10.1111 5.80747 10.9667 4.07073 10.9667C2.45187 10.9667 1.81532 10.2511 1.72888 9.33333H0C0.0943025 11.0367 1.3831 11.9933 2.89194 12.3122V14H5.24951V12.3278C6.78192 12.04 8 11.1611 8 9.56667C8 7.35778 6.09037 6.60333 4.30648 6.14444Z" fill="currentColor"></path></symbol><symbol id="arrow-left" width="8" height="14" viewBox="0 0 8 14" fill="none" xmlns="http://www.w3.org/2000/svg"><path d="M8 1.4L6.66667 0L0 6.99999L6.66664 14L7.99997 12.6L2.66668 7.00001L8 1.4Z" fill="currentColor"></path></symbol><symbol id="arrow-down" width="14" height="8" viewBox="0 0 14 8" fill="none" xmlns="http://www.w3.org/2000/svg"><path d="M12.6 0L14 1.33333L7.00001 8L0 1.33336L1.4 2.74235e-05L6.99999 5.33332L12.6 0Z" fill="currentColor"></path></symbol></svg>